<?xml version="1.0" encoding="UTF-8" standalone="no"?>
<!DOCTYPE svg PUBLIC "-//W3C//DTD SVG 1.1//EN"
 "http://www.w3.org/Graphics/SVG/1.1/DTD/svg11.dtd">
<!-- Generated by graphviz version 2.43.0 (0)
 -->
<!-- Title: a_graph Pages: 1 -->
<svg width="234pt" height="119pt"
 viewBox="0.00 0.00 234.00 119.00" xmlns="http://www.w3.org/2000/svg" xmlns:xlink="http://www.w3.org/1999/xlink">
<g id="graph0" class="graph" transform="scale(1 1) rotate(0) translate(4 115)">
<title>a_graph</title>
<polygon fill="white" stroke="transparent" points="-4,4 -4,-115 230,-115 230,4 -4,4"/>
<!-- T6 -->
<g id="node1" class="node">
<title>T6</title>
<polygon fill="none" stroke="#0058ad" points="107,-81.5 107,-110.5 211,-110.5 211,-81.5 107,-81.5"/>
<text text-anchor="middle" x="133" y="-92.3" font-family="Times,serif" font-size="14.00" fill="#0058ad">a 9 3</text>
<polyline fill="none" stroke="#0058ad" points="159,-81.5 159,-110.5 "/>
<text text-anchor="middle" x="185" y="-92.3" font-family="Times,serif" font-size="14.00" fill="#0058ad">a 9 4</text>
</g>
<!-- T8 -->
<g id="node2" class="node">
<title>T8</title>
<polygon fill="none" stroke="#0058ad" points="0,-0.5 0,-29.5 226,-29.5 226,-0.5 0,-0.5"/>
<text text-anchor="middle" x="30.5" y="-11.3" font-family="Times,serif" font-size="14.00" fill="#0058ad">r 6 [1]</text>
<polyline fill="none" stroke="#0058ad" points="61,-0.5 61,-29.5 "/>
<text text-anchor="middle" x="91.5" y="-11.3" font-family="Times,serif" font-size="14.00" fill="#0058ad">r 9 [1]</text>
<polyline fill="none" stroke="#0058ad" points="122,-0.5 122,-29.5 "/>
<text text-anchor="middle" x="148" y="-11.3" font-family="Times,serif" font-size="14.00" fill="#0058ad">a 8 2</text>
<polyline fill="none" stroke="#0058ad" points="174,-0.5 174,-29.5 "/>
<text text-anchor="middle" x="200" y="-11.3" font-family="Times,serif" font-size="14.00" fill="#0058ad">a 9 2</text>
</g>
<!-- T6&#45;&gt;T8 -->
<g id="edge1" class="edge">
<title>T6:f1&#45;&gt;T8:f3</title>
<path fill="none" stroke="#c02700" d="M185,-81C185,-61.25 195.48,-55.39 198.92,-40.2"/>
<polygon fill="#c02700" stroke="#c02700" points="202.43,-40.31 200,-30 195.47,-39.58 202.43,-40.31"/>
<text text-anchor="middle" x="207.5" y="-51.8" font-family="Times,serif" font-size="14.00" fill="#c02700">ww</text>
</g>
<!-- T8&#45;&gt;T6 -->
<g id="edge2" class="edge">
<title>T8:f1&#45;&gt;T6:f0</title>
<path fill="none" stroke="#5b00c0" d="M91,-30C91,-55.46 122.58,-53.03 130.97,-71.09"/>
<polygon fill="#5b00c0" stroke="#5b00c0" points="127.57,-71.9 133,-81 134.43,-70.5 127.57,-71.9"/>
<text text-anchor="middle" x="132.5" y="-51.8" font-family="Times,serif" font-size="14.00" fill="#5b00c0">rw</text>
</g>
</g>
</svg>
