<?xml version="1.0" encoding="UTF-8" standalone="no"?>
<!DOCTYPE svg PUBLIC "-//W3C//DTD SVG 1.1//EN"
 "http://www.w3.org/Graphics/SVG/1.1/DTD/svg11.dtd">
<!-- Generated by graphviz version 2.43.0 (0)
 -->
<!-- Title: a_graph Pages: 1 -->
<svg width="23888pt" height="1172pt"
 viewBox="0.00 0.00 23887.50 1172.00" xmlns="http://www.w3.org/2000/svg" xmlns:xlink="http://www.w3.org/1999/xlink">
<g id="graph0" class="graph" transform="scale(1 1) rotate(0) translate(4 1168)">
<title>a_graph</title>
<polygon fill="white" stroke="transparent" points="-4,4 -4,-1168 23883.5,-1168 23883.5,4 -4,4"/>
<!-- T58 -->
<g id="node1" class="node">
<title>T58</title>
<polygon fill="none" stroke="#0058ad" points="54,-1134.5 54,-1163.5 277,-1163.5 277,-1134.5 54,-1134.5"/>
<text text-anchor="middle" x="84.5" y="-1145.3" font-family="Times,serif" font-size="14.00" fill="#0058ad">a 9 17</text>
<polyline fill="none" stroke="#0058ad" points="115,-1134.5 115,-1163.5 "/>
<text text-anchor="middle" x="165.5" y="-1145.3" font-family="Times,serif" font-size="14.00" fill="#0058ad">r 7 [1 2 3 4]</text>
<polyline fill="none" stroke="#0058ad" points="216,-1134.5 216,-1163.5 "/>
<text text-anchor="middle" x="246.5" y="-1145.3" font-family="Times,serif" font-size="14.00" fill="#0058ad">a 9 18</text>
</g>
<!-- T62 -->
<g id="node8" class="node">
<title>T62</title>
<polygon fill="none" stroke="#0058ad" points="243,-972.5 243,-1001.5 1684,-1001.5 1684,-972.5 243,-972.5"/>
<text text-anchor="middle" x="269" y="-983.3" font-family="Times,serif" font-size="14.00" fill="#0058ad">a 7 5</text>
<polyline fill="none" stroke="#0058ad" points="295,-972.5 295,-1001.5 "/>
<text text-anchor="middle" x="627" y="-983.3" font-family="Times,serif" font-size="14.00" fill="#0058ad">r 9 [1 3 4 2 5 6 7 9 8 10 11 12 13 14 15 17 16 9 1 3 4 2 5 6 7 9 8 10 11 12 13 14 15 17 18]</text>
<polyline fill="none" stroke="#0058ad" points="959,-972.5 959,-1001.5 "/>
<text text-anchor="middle" x="1291" y="-983.3" font-family="Times,serif" font-size="14.00" fill="#0058ad">r 9 [1 3 4 2 5 6 7 9 8 10 11 12 13 14 15 17 16 9 1 3 4 2 5 6 7 9 8 10 11 12 13 14 15 17 18]</text>
<polyline fill="none" stroke="#0058ad" points="1623,-972.5 1623,-1001.5 "/>
<text text-anchor="middle" x="1653.5" y="-983.3" font-family="Times,serif" font-size="14.00" fill="#0058ad">a 9 20</text>
</g>
<!-- T58&#45;&gt;T62 -->
<g id="edge1" class="edge">
<title>T58:f2&#45;&gt;T62:f1</title>
<path fill="none" stroke="#c000a5" d="M278.5,-1149C359.01,-1149 605.14,-1091.02 625.2,-1012.22"/>
<polygon fill="#c000a5" stroke="#c000a5" points="628.71,-1012.36 626.5,-1002 621.76,-1011.48 628.71,-1012.36"/>
<text text-anchor="middle" x="601" y="-1064.3" font-family="Times,serif" font-size="14.00" fill="#c000a5">wr</text>
</g>
<!-- T56 -->
<g id="node14" class="node">
<title>T56</title>
<polygon fill="none" stroke="#0058ad" points="0,-1053.5 0,-1082.5 187,-1082.5 187,-1053.5 0,-1053.5"/>
<text text-anchor="middle" x="26" y="-1064.3" font-family="Times,serif" font-size="14.00" fill="#0058ad">a 7 4</text>
<polyline fill="none" stroke="#0058ad" points="52,-1053.5 52,-1082.5 "/>
<text text-anchor="middle" x="89" y="-1064.3" font-family="Times,serif" font-size="14.00" fill="#0058ad">r 6 [1 2]</text>
<polyline fill="none" stroke="#0058ad" points="126,-1053.5 126,-1082.5 "/>
<text text-anchor="middle" x="156.5" y="-1064.3" font-family="Times,serif" font-size="14.00" fill="#0058ad">a 9 16</text>
</g>
<!-- T58&#45;&gt;T56 -->
<g id="edge2" class="edge">
<title>T58:f0&#45;&gt;T56:f2</title>
<path fill="none" stroke="#c02700" d="M84.5,-1134C84.5,-1115.33 95.5,-1112.12 110.5,-1101 124.28,-1090.78 144.6,-1098.94 152.84,-1092.53"/>
<polygon fill="#c02700" stroke="#c02700" points="156.18,-1093.59 156.5,-1083 149.65,-1091.08 156.18,-1093.59"/>
<text text-anchor="middle" x="123" y="-1104.8" font-family="Times,serif" font-size="14.00" fill="#c02700">ww</text>
</g>
<!-- T94 -->
<g id="node2" class="node">
<title>T94</title>
<polygon fill="none" stroke="#0058ad" points="12552,-729.5 12552,-758.5 15631,-758.5 15631,-729.5 12552,-729.5"/>
<text text-anchor="middle" x="12663.5" y="-740.3" font-family="Times,serif" font-size="14.00" fill="#0058ad">r 8 [1 2 3 4 5 7 8 9 10 11 12]</text>
<polyline fill="none" stroke="#0058ad" points="12775,-729.5 12775,-758.5 "/>
<text text-anchor="middle" x="14142" y="-740.3" font-family="Times,serif" font-size="14.00" fill="#0058ad">r 9 [1 3 4 2 5 6 7 9 8 10 11 12 13 14 15 17 16 19 20 22 21 23 24 26 27 28 29 31 30 32 33 34 35 9 1 3 4 2 5 6 7 9 8 10 11 12 13 14 15 17 16 19 20 22 21 23 25 26 27 28 29 31 30 32 33 34 35 9 1 3 4 2 5 6 7 9 8 10 11 12 13 14 15 17 18 19 20 22 21 23 24 26 27 28 29 31 30 32 33 34 35 9 1 3 4 2 5 6 7 9 8 10 11 12 13 14 15 17 18 19 20 22 21 23 25 26 27 28 29 31 30 32 33 34 35]</text>
<polyline fill="none" stroke="#0058ad" points="15509,-729.5 15509,-758.5 "/>
<text text-anchor="middle" x="15539.5" y="-740.3" font-family="Times,serif" font-size="14.00" fill="#0058ad">a 8 13</text>
<polyline fill="none" stroke="#0058ad" points="15570,-729.5 15570,-758.5 "/>
<text text-anchor="middle" x="15600.5" y="-740.3" font-family="Times,serif" font-size="14.00" fill="#0058ad">a 8 14</text>
</g>
<!-- T100 -->
<g id="node7" class="node">
<title>T100</title>
<polygon fill="none" stroke="#0058ad" points="15569,-648.5 15569,-677.5 23832,-677.5 23832,-648.5 15569,-648.5"/>
<text text-anchor="middle" x="15599.5" y="-659.3" font-family="Times,serif" font-size="14.00" fill="#0058ad">a 8 15</text>
<polyline fill="none" stroke="#0058ad" points="15630,-648.5 15630,-677.5 "/>
<text text-anchor="middle" x="16997" y="-659.3" font-family="Times,serif" font-size="14.00" fill="#0058ad">r 9 [1 3 4 2 5 6 7 9 8 10 11 12 13 14 15 17 16 19 20 22 21 23 24 26 27 28 29 31 30 32 33 34 35 9 1 3 4 2 5 6 7 9 8 10 11 12 13 14 15 17 16 19 20 22 21 23 25 26 27 28 29 31 30 32 33 34 35 9 1 3 4 2 5 6 7 9 8 10 11 12 13 14 15 17 18 19 20 22 21 23 24 26 27 28 29 31 30 32 33 34 35 9 1 3 4 2 5 6 7 9 8 10 11 12 13 14 15 17 18 19 20 22 21 23 25 26 27 28 29 31 30 32 33 34 35]</text>
<polyline fill="none" stroke="#0058ad" points="18364,-648.5 18364,-677.5 "/>
<text text-anchor="middle" x="19731" y="-659.3" font-family="Times,serif" font-size="14.00" fill="#0058ad">r 9 [1 3 4 2 5 6 7 9 8 10 11 12 13 14 15 17 16 19 20 22 21 23 24 26 27 28 29 31 30 32 33 34 35 9 1 3 4 2 5 6 7 9 8 10 11 12 13 14 15 17 16 19 20 22 21 23 25 26 27 28 29 31 30 32 33 34 35 9 1 3 4 2 5 6 7 9 8 10 11 12 13 14 15 17 18 19 20 22 21 23 24 26 27 28 29 31 30 32 33 34 35 9 1 3 4 2 5 6 7 9 8 10 11 12 13 14 15 17 18 19 20 22 21 23 25 26 27 28 29 31 30 32 33 34 35]</text>
<polyline fill="none" stroke="#0058ad" points="21098,-648.5 21098,-677.5 "/>
<text text-anchor="middle" x="22465" y="-659.3" font-family="Times,serif" font-size="14.00" fill="#0058ad">r 9 [1 3 4 2 5 6 7 9 8 10 11 12 13 14 15 17 16 19 20 22 21 23 24 26 27 28 29 31 30 32 33 34 35 9 1 3 4 2 5 6 7 9 8 10 11 12 13 14 15 17 16 19 20 22 21 23 25 26 27 28 29 31 30 32 33 34 35 9 1 3 4 2 5 6 7 9 8 10 11 12 13 14 15 17 18 19 20 22 21 23 24 26 27 28 29 31 30 32 33 34 35 9 1 3 4 2 5 6 7 9 8 10 11 12 13 14 15 17 18 19 20 22 21 23 25 26 27 28 29 31 30 32 33 34 35]</text>
</g>
<!-- T94&#45;&gt;T100 -->
<g id="edge3" class="edge">
<title>T94:f3&#45;&gt;T100:f0</title>
<path fill="none" stroke="#c02700" d="M15600.5,-729C15600.5,-710.23 15599.81,-703.12 15599.58,-688.35"/>
<polygon fill="#c02700" stroke="#c02700" points="15603.08,-687.97 15599.5,-678 15596.08,-688.03 15603.08,-687.97"/>
<text text-anchor="middle" x="15612" y="-699.8" font-family="Times,serif" font-size="14.00" fill="#c02700">ww</text>
</g>
<!-- T102 -->
<g id="node3" class="node">
<title>T102</title>
<polygon fill="none" stroke="#0058ad" points="15568,-567.5 15568,-596.5 18791,-596.5 18791,-567.5 15568,-567.5"/>
<text text-anchor="middle" x="16935" y="-578.3" font-family="Times,serif" font-size="14.00" fill="#0058ad">r 9 [1 3 4 2 5 6 7 9 8 10 11 12 13 14 15 17 16 19 20 22 21 23 24 26 27 28 29 31 30 32 33 34 35 9 1 3 4 2 5 6 7 9 8 10 11 12 13 14 15 17 16 19 20 22 21 23 25 26 27 28 29 31 30 32 33 34 35 9 1 3 4 2 5 6 7 9 8 10 11 12 13 14 15 17 18 19 20 22 21 23 24 26 27 28 29 31 30 32 33 34 35 9 1 3 4 2 5 6 7 9 8 10 11 12 13 14 15 17 18 19 20 22 21 23 25 26 27 28 29 31 30 32 33 34 35]</text>
<polyline fill="none" stroke="#0058ad" points="18302,-567.5 18302,-596.5 "/>
<text text-anchor="middle" x="18485.5" y="-578.3" font-family="Times,serif" font-size="14.00" fill="#0058ad">r 7 [1 2 3 4 5 6 7 9 10 11 7 1 2 3 4 5 6 8 9 10 11]</text>
<polyline fill="none" stroke="#0058ad" points="18669,-567.5 18669,-596.5 "/>
<text text-anchor="middle" x="18699.5" y="-578.3" font-family="Times,serif" font-size="14.00" fill="#0058ad">a 8 16</text>
<polyline fill="none" stroke="#0058ad" points="18730,-567.5 18730,-596.5 "/>
<text text-anchor="middle" x="18760.5" y="-578.3" font-family="Times,serif" font-size="14.00" fill="#0058ad">a 7 12</text>
</g>
<!-- T140 -->
<g id="node11" class="node">
<title>T140</title>
<polygon fill="none" stroke="#0058ad" points="16291.5,-486.5 16291.5,-515.5 23107.5,-515.5 23107.5,-486.5 16291.5,-486.5"/>
<text text-anchor="middle" x="16322" y="-497.3" font-family="Times,serif" font-size="14.00" fill="#0058ad">a 7 14</text>
<polyline fill="none" stroke="#0058ad" points="16352.5,-486.5 16352.5,-515.5 "/>
<text text-anchor="middle" x="16383" y="-497.3" font-family="Times,serif" font-size="14.00" fill="#0058ad">a 8 17</text>
<polyline fill="none" stroke="#0058ad" points="16413.5,-486.5 16413.5,-515.5 "/>
<text text-anchor="middle" x="19760.5" y="-497.3" font-family="Times,serif" font-size="14.00" fill="#0058ad">r 9 [1 3 4 2 5 6 7 9 8 10 11 12 13 14 15 17 16 19 20 22 21 23 24 26 27 28 29 31 30 32 33 34 35 36 37 38 40 41 42 43 9 1 3 4 2 5 6 7 9 8 10 11 12 13 14 15 17 16 19 20 22 21 23 24 26 27 28 29 31 30 32 33 34 35 36 37 39 40 41 42 43 9 1 3 4 2 5 6 7 9 8 10 11 12 13 14 15 17 16 19 20 22 21 23 25 26 27 28 29 31 30 32 33 34 35 36 37 38 40 41 42 43 9 1 3 4 2 5 6 7 9 8 10 11 12 13 14 15 17 16 19 20 22 21 23 25 26 27 28 29 31 30 32 33 34 35 36 37 39 40 41 42 43 9 1 3 4 2 5 6 7 9 8 10 11 12 13 14 15 17 18 19 20 22 21 23 24 26 27 28 29 31 30 32 33 34 35 36 37 38 40 41 42 43 9 1 3 4 2 5 6 7 9 8 10 11 12 13 14 15 17 18 19 20 22 21 23 24 26 27 28 29 31 30 32 33 34 35 36 37 39 40 41 42 43 9 1 3 4 2 5 6 7 9 8 10 11 12 13 14 15 17 18 19 20 22 21 23 25 26 27 28 29 31 30 32 33 34 35 36 37 38 40 41 42 43 9 1 3 4 2 5 6 7 9 8 10 11 12 13 14 15 17 18 19 20 22 21 23 25 26 27 28 29 31 30 32 33 34 35 36 37 39 40 41 42 43]</text>
</g>
<!-- T102&#45;&gt;T140 -->
<g id="edge4" class="edge">
<title>T102:f2&#45;&gt;T140:f1</title>
<path fill="none" stroke="#c02700" d="M18699.5,-567C18699.5,-313.01 16445.42,-760.95 16383.79,-526.16"/>
<polygon fill="#c02700" stroke="#c02700" points="16387.23,-525.48 16382.5,-516 16380.28,-526.36 16387.23,-525.48"/>
<text text-anchor="middle" x="18701" y="-537.8" font-family="Times,serif" font-size="14.00" fill="#c02700">ww</text>
</g>
<!-- T156 -->
<g id="node4" class="node">
<title>T156</title>
<polygon fill="none" stroke="#0058ad" points="13233.5,-162.5 13233.5,-191.5 13407.5,-191.5 13407.5,-162.5 13233.5,-162.5"/>
<text text-anchor="middle" x="13259.5" y="-173.3" font-family="Times,serif" font-size="14.00" fill="#0058ad">r 0 []</text>
<polyline fill="none" stroke="#0058ad" points="13285.5,-162.5 13285.5,-191.5 "/>
<text text-anchor="middle" x="13316" y="-173.3" font-family="Times,serif" font-size="14.00" fill="#0058ad">a 8 19</text>
<polyline fill="none" stroke="#0058ad" points="13346.5,-162.5 13346.5,-191.5 "/>
<text text-anchor="middle" x="13377" y="-173.3" font-family="Times,serif" font-size="14.00" fill="#0058ad">a 9 47</text>
</g>
<!-- T116 -->
<g id="node10" class="node">
<title>T116</title>
<polygon fill="none" stroke="#0058ad" points="13377,-81.5 13377,-110.5 13438,-110.5 13438,-81.5 13377,-81.5"/>
<text text-anchor="middle" x="13407.5" y="-92.3" font-family="Times,serif" font-size="14.00" fill="#0058ad">a 9 39</text>
</g>
<!-- T156&#45;&gt;T116 -->
<g id="edge5" class="edge">
<title>T156:f2&#45;&gt;T116:f0</title>
<path fill="none" stroke="#c02700" d="M13377.5,-162C13377.5,-146.85 13384.13,-131.37 13391.15,-119.2"/>
<polygon fill="#c02700" stroke="#c02700" points="13394.19,-120.95 13396.5,-110.61 13388.24,-117.25 13394.19,-120.95"/>
<text text-anchor="middle" x="13398" y="-132.8" font-family="Times,serif" font-size="14.00" fill="#c02700">ww</text>
</g>
<!-- T182 -->
<g id="node5" class="node">
<title>T182</title>
<polygon fill="none" stroke="#0058ad" points="297,-324.5 297,-353.5 15512,-353.5 15512,-324.5 297,-324.5"/>
<text text-anchor="middle" x="7874" y="-335.3" font-family="Times,serif" font-size="14.00" fill="#0058ad">r 9 [1 3 4 2 5 6 7 9 8 10 11 12 13 14 15 17 16 19 20 22 21 23 24 26 27 28 29 31 30 32 33 34 35 36 37 38 40 41 42 43 44 45 46 48 49 9 1 3 4 2 5 6 7 9 8 10 11 12 13 14 15 17 16 19 20 22 21 23 24 26 27 28 29 31 30 32 33 34 35 36 37 38 40 41 42 43 44 45 47 48 49 9 1 3 4 2 5 6 7 9 8 10 11 12 13 14 15 17 16 19 20 22 21 23 24 26 27 28 29 31 30 32 33 34 35 36 37 39 40 41 42 43 44 45 46 48 49 9 1 3 4 2 5 6 7 9 8 10 11 12 13 14 15 17 16 19 20 22 21 23 24 26 27 28 29 31 30 32 33 34 35 36 37 39 40 41 42 43 44 45 47 48 49 9 1 3 4 2 5 6 7 9 8 10 11 12 13 14 15 17 16 19 20 22 21 23 25 26 27 28 29 31 30 32 33 34 35 36 37 38 40 41 42 43 44 45 46 48 49 9 1 3 4 2 5 6 7 9 8 10 11 12 13 14 15 17 16 19 20 22 21 23 25 26 27 28 29 31 30 32 33 34 35 36 37 38 40 41 42 43 44 45 47 48 49 9 1 3 4 2 5 6 7 9 8 10 11 12 13 14 15 17 16 19 20 22 21 23 25 26 27 28 29 31 30 32 33 34 35 36 37 39 40 41 42 43 44 45 46 48 49 9 1 3 4 2 5 6 7 9 8 10 11 12 13 14 15 17 16 19 20 22 21 23 25 26 27 28 29 31 30 32 33 34 35 36 37 39 40 41 42 43 44 45 47 48 49 9 1 3 4 2 5 6 7 9 8 10 11 12 13 14 15 17 18 19 20 22 21 23 24 26 27 28 29 31 30 32 33 34 35 36 37 38 40 41 42 43 44 45 46 48 49 9 1 3 4 2 5 6 7 9 8 10 11 12 13 14 15 17 18 19 20 22 21 23 24 26 27 28 29 31 30 32 33 34 35 36 37 38 40 41 42 43 44 45 47 48 49 9 1 3 4 2 5 6 7 9 8 10 11 12 13 14 15 17 18 19 20 22 21 23 24 26 27 28 29 31 30 32 33 34 35 36 37 39 40 41 42 43 44 45 46 48 49 9 1 3 4 2 5 6 7 9 8 10 11 12 13 14 15 17 18 19 20 22 21 23 24 26 27 28 29 31 30 32 33 34 35 36 37 39 40 41 42 43 44 45 47 48 49 9 1 3 4 2 5 6 7 9 8 10 11 12 13 14 15 17 18 19 20 22 21 23 25 26 27 28 29 31 30 32 33 34 35 36 37 38 40 41 42 43 44 45 46 48 49 9 1 3 4 2 5 6 7 9 8 10 11 12 13 14 15 17 18 19 20 22 21 23 25 26 27 28 29 31 30 32 33 34 35 36 37 38 40 41 42 43 44 45 47 48 49 9 1 3 4 2 5 6 7 9 8 10 11 12 13 14 15 17 18 19 20 22 21 23 25 26 27 28 29 31 30 32 33 34 35 36 37 39 40 41 42 43 44 45 46 48 49 9 1 3 4 2 5 6 7 9 8 10 11 12 13 14 15 17 18 19 20 22 21 23 25 26 27 28 29 31 30 32 33 34 35 36 37 39 40 41 42 43 44 45 47 48 49]</text>
<polyline fill="none" stroke="#0058ad" points="15451,-324.5 15451,-353.5 "/>
<text text-anchor="middle" x="15481.5" y="-335.3" font-family="Times,serif" font-size="14.00" fill="#0058ad">a 9 50</text>
</g>
<!-- T188 -->
<g id="node15" class="node">
<title>T188</title>
<polygon fill="none" stroke="#0058ad" points="13287.5,-243.5 13287.5,-272.5 15511.5,-272.5 15511.5,-243.5 13287.5,-243.5"/>
<text text-anchor="middle" x="13318" y="-254.3" font-family="Times,serif" font-size="14.00" fill="#0058ad">a 9 51</text>
<polyline fill="none" stroke="#0058ad" points="13348.5,-243.5 13348.5,-272.5 "/>
<text text-anchor="middle" x="14373.5" y="-254.3" font-family="Times,serif" font-size="14.00" fill="#0058ad">r 8 [1 2 3 4 5 7 8 9 10 11 12 13 14 15 16 17 18 21 20 23 24 25 26 28 27 8 1 2 3 4 5 7 8 9 10 11 12 13 14 15 16 17 18 21 22 23 24 25 26 28 27 8 1 2 3 4 5 7 8 9 10 11 12 13 14 15 16 17 19 21 20 23 24 25 26 28 27 8 1 2 3 4 5 7 8 9 10 11 12 13 14 15 16 17 19 21 22 23 24 25 26 28 27]</text>
<polyline fill="none" stroke="#0058ad" points="15398.5,-243.5 15398.5,-272.5 "/>
<text text-anchor="middle" x="15429" y="-254.3" font-family="Times,serif" font-size="14.00" fill="#0058ad">a 9 52</text>
<polyline fill="none" stroke="#0058ad" points="15459.5,-243.5 15459.5,-272.5 "/>
<text text-anchor="middle" x="15485.5" y="-254.3" font-family="Times,serif" font-size="14.00" fill="#0058ad">a 6 9</text>
</g>
<!-- T182&#45;&gt;T188 -->
<g id="edge6" class="edge">
<title>T182:f1&#45;&gt;T188:f2</title>
<path fill="none" stroke="#c02700" d="M15481.5,-324C15481.5,-295.55 15441.33,-302.72 15431.6,-282.9"/>
<polygon fill="#c02700" stroke="#c02700" points="15435,-282.05 15429.5,-273 15428.16,-283.51 15435,-282.05"/>
<text text-anchor="middle" x="15484" y="-294.8" font-family="Times,serif" font-size="14.00" fill="#c02700">ww</text>
</g>
<!-- T72 -->
<g id="node6" class="node">
<title>T72</title>
<polygon fill="none" stroke="#0058ad" points="14620,-810.5 14620,-839.5 15683,-839.5 15683,-810.5 14620,-810.5"/>
<text text-anchor="middle" x="15064.5" y="-821.3" font-family="Times,serif" font-size="14.00" fill="#0058ad">r 9 [1 3 4 2 5 6 7 9 8 10 11 12 13 14 15 17 16 19 20 22 21 23 9 1 3 4 2 5 6 7 9 8 10 11 12 13 14 15 17 18 19 20 22 21 23]</text>
<polyline fill="none" stroke="#0058ad" points="15509,-810.5 15509,-839.5 "/>
<text text-anchor="middle" x="15539.5" y="-821.3" font-family="Times,serif" font-size="14.00" fill="#0058ad">a 8 12</text>
<polyline fill="none" stroke="#0058ad" points="15570,-810.5 15570,-839.5 "/>
<text text-anchor="middle" x="15600.5" y="-821.3" font-family="Times,serif" font-size="14.00" fill="#0058ad">a 9 24</text>
<polyline fill="none" stroke="#0058ad" points="15631,-810.5 15631,-839.5 "/>
<text text-anchor="middle" x="15657" y="-821.3" font-family="Times,serif" font-size="14.00" fill="#0058ad">a 7 7</text>
</g>
<!-- T72&#45;&gt;T94 -->
<g id="edge7" class="edge">
<title>T72:f1&#45;&gt;T94:f2</title>
<path fill="none" stroke="#c02700" d="M15539.5,-810C15539.5,-791.23 15539.5,-784.12 15539.5,-769.35"/>
<polygon fill="#c02700" stroke="#c02700" points="15543,-769 15539.5,-759 15536,-769 15543,-769"/>
<text text-anchor="middle" x="15552" y="-780.8" font-family="Times,serif" font-size="14.00" fill="#c02700">ww</text>
</g>
<!-- T76 -->
<g id="node13" class="node">
<title>T76</title>
<polygon fill="none" stroke="#0058ad" points="13384.5,-0.5 13384.5,-29.5 15554.5,-29.5 15554.5,-0.5 13384.5,-0.5"/>
<text text-anchor="middle" x="13415" y="-11.3" font-family="Times,serif" font-size="14.00" fill="#0058ad">a 9 25</text>
<polyline fill="none" stroke="#0058ad" points="13445.5,-0.5 13445.5,-29.5 "/>
<text text-anchor="middle" x="13471.5" y="-11.3" font-family="Times,serif" font-size="14.00" fill="#0058ad">a 7 8</text>
<polyline fill="none" stroke="#0058ad" points="13497.5,-0.5 13497.5,-29.5 "/>
<text text-anchor="middle" x="14414.5" y="-11.3" font-family="Times,serif" font-size="14.00" fill="#0058ad">r 9 [1 3 4 2 5 6 7 9 8 10 11 12 13 14 15 17 16 19 20 22 21 23 24 9 1 3 4 2 5 6 7 9 8 10 11 12 13 14 15 17 16 19 20 22 21 23 25 9 1 3 4 2 5 6 7 9 8 10 11 12 13 14 15 17 18 19 20 22 21 23 24 9 1 3 4 2 5 6 7 9 8 10 11 12 13 14 15 17 18 19 20 22 21 23 25]</text>
<polyline fill="none" stroke="#0058ad" points="15331.5,-0.5 15331.5,-29.5 "/>
<text text-anchor="middle" x="15443" y="-11.3" font-family="Times,serif" font-size="14.00" fill="#0058ad">r 8 [1 2 3 4 5 7 8 9 10 11 12]</text>
</g>
<!-- T72&#45;&gt;T76 -->
<g id="edge8" class="edge">
<title>T72:f1&#45;&gt;T76:f3</title>
<path fill="none" stroke="#c000a5" d="M15539.5,-810C15539.5,-694.43 23860.5,-860.57 23860.5,-745 23860.5,-745 23860.5,-745 23860.5,-95 23860.5,-38.31 15892.66,-15.77 15565.55,-15.02"/>
<polygon fill="#c000a5" stroke="#c000a5" points="15565.51,-11.52 15555.5,-15 15565.49,-18.52 15565.51,-11.52"/>
<text text-anchor="middle" x="23870" y="-416.3" font-family="Times,serif" font-size="14.00" fill="#c000a5">wr</text>
</g>
<!-- T100&#45;&gt;T102 -->
<g id="edge9" class="edge">
<title>T100:f0&#45;&gt;T102:f2</title>
<path fill="none" stroke="#c02700" d="M15599.5,-648C15599.5,-479.12 18579.59,-757.96 18696,-606.57"/>
<polygon fill="#c02700" stroke="#c02700" points="18699.35,-607.59 18699.5,-597 18692.78,-605.19 18699.35,-607.59"/>
<text text-anchor="middle" x="18697" y="-618.8" font-family="Times,serif" font-size="14.00" fill="#c02700">ww</text>
</g>
<!-- T66 -->
<g id="node12" class="node">
<title>T66</title>
<polygon fill="none" stroke="#0058ad" points="12084,-891.5 12084,-920.5 13169,-920.5 13169,-891.5 12084,-891.5"/>
<text text-anchor="middle" x="12114.5" y="-902.3" font-family="Times,serif" font-size="14.00" fill="#0058ad">a 9 22</text>
<polyline fill="none" stroke="#0058ad" points="12145,-891.5 12145,-920.5 "/>
<text text-anchor="middle" x="12171" y="-902.3" font-family="Times,serif" font-size="14.00" fill="#0058ad">a 7 6</text>
<polyline fill="none" stroke="#0058ad" points="12197,-891.5 12197,-920.5 "/>
<text text-anchor="middle" x="12619" y="-902.3" font-family="Times,serif" font-size="14.00" fill="#0058ad">r 9 [1 3 4 2 5 6 7 9 8 10 11 12 13 14 15 17 16 19 20 22 21 9 1 3 4 2 5 6 7 9 8 10 11 12 13 14 15 17 18 19 20 22 21]</text>
<polyline fill="none" stroke="#0058ad" points="13041,-891.5 13041,-920.5 "/>
<text text-anchor="middle" x="13105" y="-902.3" font-family="Times,serif" font-size="14.00" fill="#0058ad">r 7 [1 2 3 4 5 6]</text>
</g>
<!-- T62&#45;&gt;T66 -->
<g id="edge10" class="edge">
<title>T62:f3&#45;&gt;T66:f0</title>
<path fill="none" stroke="#c02700" d="M1685.5,-987C6303.14,-987 7459.78,-906.12 12072.35,-906"/>
<polygon fill="#c02700" stroke="#c02700" points="12072.5,-909.5 12082.5,-906 12072.5,-902.5 12072.5,-909.5"/>
<text text-anchor="middle" x="7417" y="-942.8" font-family="Times,serif" font-size="14.00" fill="#c02700">ww</text>
</g>
<!-- T176 -->
<g id="node9" class="node">
<title>T176</title>
<polygon fill="none" stroke="#0058ad" points="14827,-405.5 14827,-434.5 15512,-434.5 15512,-405.5 14827,-405.5"/>
<text text-anchor="middle" x="15078" y="-416.3" font-family="Times,serif" font-size="14.00" fill="#0058ad">r 7 [1 2 3 4 5 6 7 9 10 11 12 13 14 7 1 2 3 4 5 6 8 9 10 11 12 13 14]</text>
<polyline fill="none" stroke="#0058ad" points="15329,-405.5 15329,-434.5 "/>
<text text-anchor="middle" x="15359.5" y="-416.3" font-family="Times,serif" font-size="14.00" fill="#0058ad">a 7 15</text>
<polyline fill="none" stroke="#0058ad" points="15390,-405.5 15390,-434.5 "/>
<text text-anchor="middle" x="15420.5" y="-416.3" font-family="Times,serif" font-size="14.00" fill="#0058ad">a 8 27</text>
<polyline fill="none" stroke="#0058ad" points="15451,-405.5 15451,-434.5 "/>
<text text-anchor="middle" x="15481.5" y="-416.3" font-family="Times,serif" font-size="14.00" fill="#0058ad">a 9 49</text>
</g>
<!-- T176&#45;&gt;T182 -->
<g id="edge11" class="edge">
<title>T176:f3&#45;&gt;T182:f1</title>
<path fill="none" stroke="#c02700" d="M15481.5,-405C15481.5,-386.23 15481.5,-379.12 15481.5,-364.35"/>
<polygon fill="#c02700" stroke="#c02700" points="15485,-364 15481.5,-354 15478,-364 15485,-364"/>
<text text-anchor="middle" x="15494" y="-375.8" font-family="Times,serif" font-size="14.00" fill="#c02700">ww</text>
</g>
<!-- T176&#45;&gt;T188 -->
<g id="edge12" class="edge">
<title>T176:f2&#45;&gt;T188:f1</title>
<path fill="none" stroke="#c000a5" d="M15420.5,-405C15420.5,-299.78 343.77,-428.52 269.5,-354 260.09,-344.56 260.09,-333.45 269.5,-324 337.6,-255.65 13958.57,-367.52 14364.25,-277.23"/>
<polygon fill="#c000a5" stroke="#c000a5" points="14365.87,-280.35 14373.5,-273 14362.95,-273.98 14365.87,-280.35"/>
<text text-anchor="middle" x="279" y="-335.3" font-family="Times,serif" font-size="14.00" fill="#c000a5">wr</text>
</g>
<!-- T116&#45;&gt;T76 -->
<g id="edge13" class="edge">
<title>T116:f0&#45;&gt;T76:f0</title>
<path fill="none" stroke="#c02700" d="M13409.95,-81.37C13411.59,-70.53 13413.57,-55.11 13414.25,-40.19"/>
<polygon fill="#c02700" stroke="#c02700" points="13417.76,-40.08 13414.5,-30 13410.76,-39.91 13417.76,-40.08"/>
<text text-anchor="middle" x="13426" y="-51.8" font-family="Times,serif" font-size="14.00" fill="#c02700">ww</text>
</g>
<!-- T140&#45;&gt;T176 -->
<g id="edge14" class="edge">
<title>T140:f0&#45;&gt;T176:f1</title>
<path fill="none" stroke="#c02700" d="M16290.5,-501C16241.28,-501 15446.66,-488.25 15366.08,-442.61"/>
<polygon fill="#c02700" stroke="#c02700" points="15368.69,-440.28 15359.5,-435 15363.39,-444.85 15368.69,-440.28"/>
<text text-anchor="middle" x="15500" y="-456.8" font-family="Times,serif" font-size="14.00" fill="#c02700">ww</text>
</g>
<!-- T66&#45;&gt;T72 -->
<g id="edge15" class="edge">
<title>T66:f1&#45;&gt;T72:f3</title>
<path fill="none" stroke="#c02700" d="M12170.5,-891C12170.5,-700.66 15535.99,-1022.08 15654.31,-849.73"/>
<polygon fill="#c02700" stroke="#c02700" points="15657.71,-850.59 15657.5,-840 15651.06,-848.41 15657.71,-850.59"/>
<text text-anchor="middle" x="15653" y="-861.8" font-family="Times,serif" font-size="14.00" fill="#c02700">ww</text>
</g>
<!-- T76&#45;&gt;T58 -->
<g id="edge17" class="edge">
<title>T76:f0&#45;&gt;T58:f2</title>
<path fill="none" stroke="#c02700" d="M13383.5,-15C13337.77,-15 214.5,-49.27 214.5,-95 214.5,-1069 214.5,-1069 214.5,-1069 214.5,-1097.43 239.44,-1101.23 245.28,-1123.88"/>
<polygon fill="#c02700" stroke="#c02700" points="241.83,-1124.49 246.5,-1134 248.78,-1123.65 241.83,-1124.49"/>
<text text-anchor="middle" x="227" y="-578.3" font-family="Times,serif" font-size="14.00" fill="#c02700">ww</text>
</g>
<!-- T76&#45;&gt;T94 -->
<g id="edge16" class="edge">
<title>T76:f3&#45;&gt;T94:f2</title>
<path fill="none" stroke="#5b00c0" d="M15555.5,-15C15591.76,-15 15539.5,-58.74 15539.5,-95 15539.5,-664 15539.5,-664 15539.5,-664 15539.5,-689.16 15539.5,-697.89 15539.5,-718.82"/>
<polygon fill="#5b00c0" stroke="#5b00c0" points="15536,-719 15539.5,-729 15543,-719 15536,-719"/>
<text text-anchor="middle" x="15549" y="-375.8" font-family="Times,serif" font-size="14.00" fill="#5b00c0">rw</text>
</g>
<!-- T56&#45;&gt;T58 -->
<g id="edge19" class="edge">
<title>T56:f0&#45;&gt;T58:f1</title>
<path fill="none" stroke="#c000a5" d="M25.5,-1083C25.5,-1107.77 113.73,-1089.18 135.5,-1101 149.52,-1108.61 160.4,-1112.51 164.12,-1124.07"/>
<polygon fill="#c000a5" stroke="#c000a5" points="160.66,-1124.58 165.5,-1134 167.59,-1123.61 160.66,-1124.58"/>
<text text-anchor="middle" x="168" y="-1104.8" font-family="Times,serif" font-size="14.00" fill="#c000a5">wr</text>
</g>
<!-- T56&#45;&gt;T62 -->
<g id="edge18" class="edge">
<title>T56:f0&#45;&gt;T62:f0</title>
<path fill="none" stroke="#c02700" d="M25.5,-1053C25.5,-946.31 252.63,-1101.39 267.71,-1012.09"/>
<polygon fill="#c02700" stroke="#c02700" points="271.21,-1012.24 268.5,-1002 264.23,-1011.7 271.21,-1012.24"/>
<text text-anchor="middle" x="276" y="-1023.8" font-family="Times,serif" font-size="14.00" fill="#c02700">ww</text>
</g>
<!-- T188&#45;&gt;T156 -->
<g id="edge20" class="edge">
<title>T188:f0&#45;&gt;T156:f2</title>
<path fill="none" stroke="#c02700" d="M13317.5,-243C13317.5,-211.97 13364.68,-223.39 13375.36,-201.97"/>
<polygon fill="#c02700" stroke="#c02700" points="13378.83,-202.51 13377.5,-192 13371.98,-201.05 13378.83,-202.51"/>
<text text-anchor="middle" x="13379" y="-213.8" font-family="Times,serif" font-size="14.00" fill="#c02700">ww</text>
</g>
</g>
</svg>
