<?xml version="1.0" encoding="UTF-8" standalone="no"?>
<!DOCTYPE svg PUBLIC "-//W3C//DTD SVG 1.1//EN"
 "http://www.w3.org/Graphics/SVG/1.1/DTD/svg11.dtd">
<!-- Generated by graphviz version 2.43.0 (0)
 -->
<!-- Title: a_graph Pages: 1 -->
<svg width="430pt" height="119pt"
 viewBox="0.00 0.00 429.50 119.00" xmlns="http://www.w3.org/2000/svg" xmlns:xlink="http://www.w3.org/1999/xlink">
<g id="graph0" class="graph" transform="scale(1 1) rotate(0) translate(4 115)">
<title>a_graph</title>
<polygon fill="white" stroke="transparent" points="-4,4 -4,-115 425.5,-115 425.5,4 -4,4"/>
<!-- T34 -->
<g id="node1" class="node">
<title>T34</title>
<polygon fill="none" stroke="#0058ad" points="0,-81.5 0,-110.5 246,-110.5 246,-81.5 0,-81.5"/>
<text text-anchor="middle" x="71" y="-92.3" font-family="Times,serif" font-size="14.00" fill="#0058ad">r 9 [1 3 4 2 5 6 7]</text>
<polyline fill="none" stroke="#0058ad" points="142,-81.5 142,-110.5 "/>
<text text-anchor="middle" x="168" y="-92.3" font-family="Times,serif" font-size="14.00" fill="#0058ad">a 8 8</text>
<polyline fill="none" stroke="#0058ad" points="194,-81.5 194,-110.5 "/>
<text text-anchor="middle" x="220" y="-92.3" font-family="Times,serif" font-size="14.00" fill="#0058ad">a 9 8</text>
</g>
<!-- T36 -->
<g id="node2" class="node">
<title>T36</title>
<polygon fill="none" stroke="#0058ad" points="24.5,-0.5 24.5,-29.5 421.5,-29.5 421.5,-0.5 24.5,-0.5"/>
<text text-anchor="middle" x="95.5" y="-11.3" font-family="Times,serif" font-size="14.00" fill="#0058ad">r 9 [1 3 4 2 5 6 7]</text>
<polyline fill="none" stroke="#0058ad" points="166.5,-0.5 166.5,-29.5 "/>
<text text-anchor="middle" x="192.5" y="-11.3" font-family="Times,serif" font-size="14.00" fill="#0058ad">a 9 9</text>
<polyline fill="none" stroke="#0058ad" points="218.5,-0.5 218.5,-29.5 "/>
<text text-anchor="middle" x="249" y="-11.3" font-family="Times,serif" font-size="14.00" fill="#0058ad">a 9 10</text>
<polyline fill="none" stroke="#0058ad" points="279.5,-0.5 279.5,-29.5 "/>
<text text-anchor="middle" x="350.5" y="-11.3" font-family="Times,serif" font-size="14.00" fill="#0058ad">r 8 [1 2 3 4 5 7 8]</text>
</g>
<!-- T34&#45;&gt;T36 -->
<g id="edge1" class="edge">
<title>T34:f2&#45;&gt;T36:f2</title>
<path fill="none" stroke="#c02700" d="M220,-81C220,-58.8 241.03,-56.33 247.27,-39.99"/>
<polygon fill="#c02700" stroke="#c02700" points="250.75,-40.45 249,-30 243.85,-39.26 250.75,-40.45"/>
<text text-anchor="middle" x="253.5" y="-51.8" font-family="Times,serif" font-size="14.00" fill="#c02700">ww</text>
</g>
<!-- T36&#45;&gt;T34 -->
<g id="edge2" class="edge">
<title>T36:f1&#45;&gt;T34:f2</title>
<path fill="none" stroke="#c02700" d="M192,-30C192,-44.91 190.43,-50.16 198,-63 201.91,-69.63 209.22,-70.17 214.34,-72.44"/>
<polygon fill="#c02700" stroke="#c02700" points="211.56,-74.59 220,-81 217.4,-70.73 211.56,-74.59"/>
<text text-anchor="middle" x="210.5" y="-51.8" font-family="Times,serif" font-size="14.00" fill="#c02700">ww</text>
</g>
</g>
</svg>
