<?xml version="1.0" encoding="UTF-8" standalone="no"?>
<!DOCTYPE svg PUBLIC "-//W3C//DTD SVG 1.1//EN"
 "http://www.w3.org/Graphics/SVG/1.1/DTD/svg11.dtd">
<!-- Generated by graphviz version 2.43.0 (0)
 -->
<!-- Title: a_graph Pages: 1 -->
<svg width="339pt" height="119pt"
 viewBox="0.00 0.00 339.00 119.00" xmlns="http://www.w3.org/2000/svg" xmlns:xlink="http://www.w3.org/1999/xlink">
<g id="graph0" class="graph" transform="scale(1 1) rotate(0) translate(4 115)">
<title>a_graph</title>
<polygon fill="white" stroke="transparent" points="-4,4 -4,-115 335,-115 335,4 -4,4"/>
<!-- T14 -->
<g id="node1" class="node">
<title>T14</title>
<polygon fill="none" stroke="#0058ad" points="76,-81.5 76,-110.5 331,-110.5 331,-81.5 76,-81.5"/>
<text text-anchor="middle" x="120" y="-92.3" font-family="Times,serif" font-size="14.00" fill="#0058ad">r 9 [1 2 3]</text>
<polyline fill="none" stroke="#0058ad" points="164,-81.5 164,-110.5 "/>
<text text-anchor="middle" x="190" y="-92.3" font-family="Times,serif" font-size="14.00" fill="#0058ad">a 9 5</text>
<polyline fill="none" stroke="#0058ad" points="216,-81.5 216,-110.5 "/>
<text text-anchor="middle" x="273.5" y="-92.3" font-family="Times,serif" font-size="14.00" fill="#0058ad">r 9 [1 2 3 4 5]</text>
</g>
<!-- T12 -->
<g id="node2" class="node">
<title>T12</title>
<polygon fill="none" stroke="#0058ad" points="0,-0.5 0,-29.5 187,-29.5 187,-0.5 0,-0.5"/>
<text text-anchor="middle" x="30.5" y="-11.3" font-family="Times,serif" font-size="14.00" fill="#0058ad">r 7 [1]</text>
<polyline fill="none" stroke="#0058ad" points="61,-0.5 61,-29.5 "/>
<text text-anchor="middle" x="98" y="-11.3" font-family="Times,serif" font-size="14.00" fill="#0058ad">r 8 [1 2]</text>
<polyline fill="none" stroke="#0058ad" points="135,-0.5 135,-29.5 "/>
<text text-anchor="middle" x="161" y="-11.3" font-family="Times,serif" font-size="14.00" fill="#0058ad">a 9 4</text>
</g>
<!-- T14&#45;&gt;T12 -->
<g id="edge1" class="edge">
<title>T14:f0&#45;&gt;T12:f2</title>
<path fill="none" stroke="#5b00c0" d="M119.5,-81C119.5,-63.37 129.97,-61.33 141.5,-48 146.14,-42.63 152.32,-41.51 156.58,-38.98"/>
<polygon fill="#5b00c0" stroke="#5b00c0" points="159.76,-40.45 161.5,-30 153.62,-37.09 159.76,-40.45"/>
<text text-anchor="middle" x="151" y="-51.8" font-family="Times,serif" font-size="14.00" fill="#5b00c0">rw</text>
</g>
<!-- T12&#45;&gt;T14 -->
<g id="edge2" class="edge">
<title>T12:f2&#45;&gt;T14:f1</title>
<path fill="none" stroke="#c02700" d="M161.5,-30C161.5,-52.02 181.8,-54.77 187.83,-71.07"/>
<polygon fill="#c02700" stroke="#c02700" points="184.39,-71.72 189.5,-81 191.3,-70.56 184.39,-71.72"/>
<text text-anchor="middle" x="195" y="-51.8" font-family="Times,serif" font-size="14.00" fill="#c02700">ww</text>
</g>
</g>
</svg>
