<?xml version="1.0" encoding="UTF-8" standalone="no"?>
<!DOCTYPE svg PUBLIC "-//W3C//DTD SVG 1.1//EN"
 "http://www.w3.org/Graphics/SVG/1.1/DTD/svg11.dtd">
<!-- Generated by graphviz version 2.43.0 (0)
 -->
<!-- Title: a_graph Pages: 1 -->
<svg width="1193pt" height="119pt"
 viewBox="0.00 0.00 1192.50 119.00" xmlns="http://www.w3.org/2000/svg" xmlns:xlink="http://www.w3.org/1999/xlink">
<g id="graph0" class="graph" transform="scale(1 1) rotate(0) translate(4 115)">
<title>a_graph</title>
<polygon fill="white" stroke="transparent" points="-4,4 -4,-115 1188.5,-115 1188.5,4 -4,4"/>
<!-- T42 -->
<g id="node1" class="node">
<title>T42</title>
<polygon fill="none" stroke="#0058ad" points="0,-81.5 0,-110.5 329,-110.5 329,-81.5 0,-81.5"/>
<text text-anchor="middle" x="77.5" y="-92.3" font-family="Times,serif" font-size="14.00" fill="#0058ad">r 8 [1 2 3 4 5 7 8 9]</text>
<polyline fill="none" stroke="#0058ad" points="155,-81.5 155,-110.5 "/>
<text text-anchor="middle" x="185.5" y="-92.3" font-family="Times,serif" font-size="14.00" fill="#0058ad">a 9 13</text>
<polyline fill="none" stroke="#0058ad" points="216,-81.5 216,-110.5 "/>
<text text-anchor="middle" x="246.5" y="-92.3" font-family="Times,serif" font-size="14.00" fill="#0058ad">a 9 14</text>
<polyline fill="none" stroke="#0058ad" points="277,-81.5 277,-110.5 "/>
<text text-anchor="middle" x="303" y="-92.3" font-family="Times,serif" font-size="14.00" fill="#0058ad">a 7 2</text>
</g>
<!-- T44 -->
<g id="node2" class="node">
<title>T44</title>
<polygon fill="none" stroke="#0058ad" points="82.5,-0.5 82.5,-29.5 1184.5,-29.5 1184.5,-0.5 82.5,-0.5"/>
<text text-anchor="middle" x="212" y="-11.3" font-family="Times,serif" font-size="14.00" fill="#0058ad">r 9 [1 3 4 2 5 6 7 9 8 10 11 12 13]</text>
<polyline fill="none" stroke="#0058ad" points="341.5,-0.5 341.5,-29.5 "/>
<text text-anchor="middle" x="482" y="-11.3" font-family="Times,serif" font-size="14.00" fill="#0058ad">r 9 [1 3 4 2 5 6 7 9 8 10 11 12 13 14]</text>
<polyline fill="none" stroke="#0058ad" points="622.5,-0.5 622.5,-29.5 "/>
<text text-anchor="middle" x="763" y="-11.3" font-family="Times,serif" font-size="14.00" fill="#0058ad">r 9 [1 3 4 2 5 6 7 9 8 10 11 12 13 14]</text>
<polyline fill="none" stroke="#0058ad" points="903.5,-0.5 903.5,-29.5 "/>
<text text-anchor="middle" x="1044" y="-11.3" font-family="Times,serif" font-size="14.00" fill="#0058ad">r 9 [1 3 4 2 5 6 7 9 8 10 11 12 13 14]</text>
</g>
<!-- T42&#45;&gt;T44 -->
<g id="edge1" class="edge">
<title>T42:f1&#45;&gt;T44:f0</title>
<path fill="none" stroke="#c000a5" d="M185.5,-81C185.5,-64.89 192.95,-62.23 200.5,-48 202.7,-43.86 205.45,-41.7 207.65,-39.41"/>
<polygon fill="#c000a5" stroke="#c000a5" points="210.95,-40.58 211.5,-30 204.47,-37.93 210.95,-40.58"/>
<text text-anchor="middle" x="210" y="-51.8" font-family="Times,serif" font-size="14.00" fill="#c000a5">wr</text>
</g>
<!-- T44&#45;&gt;T42 -->
<g id="edge2" class="edge">
<title>T44:f0&#45;&gt;T42:f2</title>
<path fill="none" stroke="#5b00c0" d="M211.5,-30C211.5,-40.95 233.73,-58.11 242.75,-71.58"/>
<polygon fill="#5b00c0" stroke="#5b00c0" points="239.55,-73 246.5,-81 246.06,-70.41 239.55,-73"/>
<text text-anchor="middle" x="244" y="-51.8" font-family="Times,serif" font-size="14.00" fill="#5b00c0">rw</text>
</g>
</g>
</svg>
