<?xml version="1.0" encoding="UTF-8" standalone="no"?>
<!DOCTYPE svg PUBLIC "-//W3C//DTD SVG 1.1//EN"
 "http://www.w3.org/Graphics/SVG/1.1/DTD/svg11.dtd">
<!-- Generated by graphviz version 2.43.0 (0)
 -->
<!-- Title: a_graph Pages: 1 -->
<svg width="29690pt" height="443pt"
 viewBox="0.00 0.00 29690.04 443.00" xmlns="http://www.w3.org/2000/svg" xmlns:xlink="http://www.w3.org/1999/xlink">
<g id="graph0" class="graph" transform="scale(1 1) rotate(0) translate(4 439)">
<title>a_graph</title>
<polygon fill="white" stroke="transparent" points="-4,4 -4,-439 29686.04,-439 29686.04,4 -4,4"/>
<!-- T160 -->
<g id="node1" class="node">
<title>T160</title>
<polygon fill="none" stroke="#0058ad" points="7408.04,-405.5 7408.04,-434.5 7530.04,-434.5 7530.04,-405.5 7408.04,-405.5"/>
<text text-anchor="middle" x="7438.54" y="-416.3" font-family="Times,serif" font-size="14.00" fill="#0058ad">a 9 48</text>
<polyline fill="none" stroke="#0058ad" points="7469.04,-405.5 7469.04,-434.5 "/>
<text text-anchor="middle" x="7499.54" y="-416.3" font-family="Times,serif" font-size="14.00" fill="#0058ad">a 8 20</text>
</g>
<!-- T176 -->
<g id="node4" class="node">
<title>T176</title>
<polygon fill="none" stroke="#0058ad" points="6783.54,-243.5 6783.54,-272.5 7468.54,-272.5 7468.54,-243.5 6783.54,-243.5"/>
<text text-anchor="middle" x="7034.54" y="-254.3" font-family="Times,serif" font-size="14.00" fill="#0058ad">r 7 [1 2 3 4 5 6 7 9 10 11 12 13 14 7 1 2 3 4 5 6 8 9 10 11 12 13 14]</text>
<polyline fill="none" stroke="#0058ad" points="7285.54,-243.5 7285.54,-272.5 "/>
<text text-anchor="middle" x="7316.04" y="-254.3" font-family="Times,serif" font-size="14.00" fill="#0058ad">a 7 15</text>
<polyline fill="none" stroke="#0058ad" points="7346.54,-243.5 7346.54,-272.5 "/>
<text text-anchor="middle" x="7377.04" y="-254.3" font-family="Times,serif" font-size="14.00" fill="#0058ad">a 8 27</text>
<polyline fill="none" stroke="#0058ad" points="7407.54,-243.5 7407.54,-272.5 "/>
<text text-anchor="middle" x="7438.04" y="-254.3" font-family="Times,serif" font-size="14.00" fill="#0058ad">a 9 49</text>
</g>
<!-- T160&#45;&gt;T176 -->
<g id="edge1" class="edge">
<title>T160:f0&#45;&gt;T176:f3</title>
<path fill="none" stroke="#c02700" d="M7407.04,-420C7355.65,-420 43.22,-390.5 7.04,-354 -2.34,-344.53 -2.35,-333.46 7.04,-324 78.35,-252.2 7153.39,-371.39 7429.73,-278.79"/>
<polygon fill="#c02700" stroke="#c02700" points="7431.84,-281.59 7438.04,-273 7427.84,-275.84 7431.84,-281.59"/>
<text text-anchor="middle" x="19.54" y="-335.3" font-family="Times,serif" font-size="14.00" fill="#c02700">ww</text>
</g>
<!-- T166 -->
<g id="node5" class="node">
<title>T166</title>
<polygon fill="none" stroke="#0058ad" points="41.04,-324.5 41.04,-353.5 29629.04,-353.5 29629.04,-324.5 41.04,-324.5"/>
<text text-anchor="middle" x="7438.04" y="-335.3" font-family="Times,serif" font-size="14.00" fill="#0058ad">r 9 [1 3 4 2 5 6 7 9 8 10 11 12 13 14 15 17 16 19 20 22 21 23 24 26 27 28 29 31 30 32 33 34 35 36 37 38 40 41 42 43 44 45 46 48 9 1 3 4 2 5 6 7 9 8 10 11 12 13 14 15 17 16 19 20 22 21 23 24 26 27 28 29 31 30 32 33 34 35 36 37 38 40 41 42 43 44 45 47 48 9 1 3 4 2 5 6 7 9 8 10 11 12 13 14 15 17 16 19 20 22 21 23 24 26 27 28 29 31 30 32 33 34 35 36 37 39 40 41 42 43 44 45 46 48 9 1 3 4 2 5 6 7 9 8 10 11 12 13 14 15 17 16 19 20 22 21 23 24 26 27 28 29 31 30 32 33 34 35 36 37 39 40 41 42 43 44 45 47 48 9 1 3 4 2 5 6 7 9 8 10 11 12 13 14 15 17 16 19 20 22 21 23 25 26 27 28 29 31 30 32 33 34 35 36 37 38 40 41 42 43 44 45 46 48 9 1 3 4 2 5 6 7 9 8 10 11 12 13 14 15 17 16 19 20 22 21 23 25 26 27 28 29 31 30 32 33 34 35 36 37 38 40 41 42 43 44 45 47 48 9 1 3 4 2 5 6 7 9 8 10 11 12 13 14 15 17 16 19 20 22 21 23 25 26 27 28 29 31 30 32 33 34 35 36 37 39 40 41 42 43 44 45 46 48 9 1 3 4 2 5 6 7 9 8 10 11 12 13 14 15 17 16 19 20 22 21 23 25 26 27 28 29 31 30 32 33 34 35 36 37 39 40 41 42 43 44 45 47 48 9 1 3 4 2 5 6 7 9 8 10 11 12 13 14 15 17 18 19 20 22 21 23 24 26 27 28 29 31 30 32 33 34 35 36 37 38 40 41 42 43 44 45 46 48 9 1 3 4 2 5 6 7 9 8 10 11 12 13 14 15 17 18 19 20 22 21 23 24 26 27 28 29 31 30 32 33 34 35 36 37 38 40 41 42 43 44 45 47 48 9 1 3 4 2 5 6 7 9 8 10 11 12 13 14 15 17 18 19 20 22 21 23 24 26 27 28 29 31 30 32 33 34 35 36 37 39 40 41 42 43 44 45 46 48 9 1 3 4 2 5 6 7 9 8 10 11 12 13 14 15 17 18 19 20 22 21 23 24 26 27 28 29 31 30 32 33 34 35 36 37 39 40 41 42 43 44 45 47 48 9 1 3 4 2 5 6 7 9 8 10 11 12 13 14 15 17 18 19 20 22 21 23 25 26 27 28 29 31 30 32 33 34 35 36 37 38 40 41 42 43 44 45 46 48 9 1 3 4 2 5 6 7 9 8 10 11 12 13 14 15 17 18 19 20 22 21 23 25 26 27 28 29 31 30 32 33 34 35 36 37 38 40 41 42 43 44 45 47 48 9 1 3 4 2 5 6 7 9 8 10 11 12 13 14 15 17 18 19 20 22 21 23 25 26 27 28 29 31 30 32 33 34 35 36 37 39 40 41 42 43 44 45 46 48 9 1 3 4 2 5 6 7 9 8 10 11 12 13 14 15 17 18 19 20 22 21 23 25 26 27 28 29 31 30 32 33 34 35 36 37 39 40 41 42 43 44 45 47 48]</text>
<polyline fill="none" stroke="#0058ad" points="14835.04,-324.5 14835.04,-353.5 "/>
<text text-anchor="middle" x="22232.04" y="-335.3" font-family="Times,serif" font-size="14.00" fill="#0058ad">r 9 [1 3 4 2 5 6 7 9 8 10 11 12 13 14 15 17 16 19 20 22 21 23 24 26 27 28 29 31 30 32 33 34 35 36 37 38 40 41 42 43 44 45 46 48 9 1 3 4 2 5 6 7 9 8 10 11 12 13 14 15 17 16 19 20 22 21 23 24 26 27 28 29 31 30 32 33 34 35 36 37 38 40 41 42 43 44 45 47 48 9 1 3 4 2 5 6 7 9 8 10 11 12 13 14 15 17 16 19 20 22 21 23 24 26 27 28 29 31 30 32 33 34 35 36 37 39 40 41 42 43 44 45 46 48 9 1 3 4 2 5 6 7 9 8 10 11 12 13 14 15 17 16 19 20 22 21 23 24 26 27 28 29 31 30 32 33 34 35 36 37 39 40 41 42 43 44 45 47 48 9 1 3 4 2 5 6 7 9 8 10 11 12 13 14 15 17 16 19 20 22 21 23 25 26 27 28 29 31 30 32 33 34 35 36 37 38 40 41 42 43 44 45 46 48 9 1 3 4 2 5 6 7 9 8 10 11 12 13 14 15 17 16 19 20 22 21 23 25 26 27 28 29 31 30 32 33 34 35 36 37 38 40 41 42 43 44 45 47 48 9 1 3 4 2 5 6 7 9 8 10 11 12 13 14 15 17 16 19 20 22 21 23 25 26 27 28 29 31 30 32 33 34 35 36 37 39 40 41 42 43 44 45 46 48 9 1 3 4 2 5 6 7 9 8 10 11 12 13 14 15 17 16 19 20 22 21 23 25 26 27 28 29 31 30 32 33 34 35 36 37 39 40 41 42 43 44 45 47 48 9 1 3 4 2 5 6 7 9 8 10 11 12 13 14 15 17 18 19 20 22 21 23 24 26 27 28 29 31 30 32 33 34 35 36 37 38 40 41 42 43 44 45 46 48 9 1 3 4 2 5 6 7 9 8 10 11 12 13 14 15 17 18 19 20 22 21 23 24 26 27 28 29 31 30 32 33 34 35 36 37 38 40 41 42 43 44 45 47 48 9 1 3 4 2 5 6 7 9 8 10 11 12 13 14 15 17 18 19 20 22 21 23 24 26 27 28 29 31 30 32 33 34 35 36 37 39 40 41 42 43 44 45 46 48 9 1 3 4 2 5 6 7 9 8 10 11 12 13 14 15 17 18 19 20 22 21 23 24 26 27 28 29 31 30 32 33 34 35 36 37 39 40 41 42 43 44 45 47 48 9 1 3 4 2 5 6 7 9 8 10 11 12 13 14 15 17 18 19 20 22 21 23 25 26 27 28 29 31 30 32 33 34 35 36 37 38 40 41 42 43 44 45 46 48 9 1 3 4 2 5 6 7 9 8 10 11 12 13 14 15 17 18 19 20 22 21 23 25 26 27 28 29 31 30 32 33 34 35 36 37 38 40 41 42 43 44 45 47 48 9 1 3 4 2 5 6 7 9 8 10 11 12 13 14 15 17 18 19 20 22 21 23 25 26 27 28 29 31 30 32 33 34 35 36 37 39 40 41 42 43 44 45 46 48 9 1 3 4 2 5 6 7 9 8 10 11 12 13 14 15 17 18 19 20 22 21 23 25 26 27 28 29 31 30 32 33 34 35 36 37 39 40 41 42 43 44 45 47 48]</text>
</g>
<!-- T160&#45;&gt;T166 -->
<g id="edge2" class="edge">
<title>T160:f0&#45;&gt;T166:f0</title>
<path fill="none" stroke="#c000a5" d="M7438.04,-405C7438.04,-386.23 7438.04,-379.12 7438.04,-364.35"/>
<polygon fill="#c000a5" stroke="#c000a5" points="7441.54,-364 7438.04,-354 7434.54,-364 7441.54,-364"/>
<text text-anchor="middle" x="7447.54" y="-375.8" font-family="Times,serif" font-size="14.00" fill="#c000a5">wr</text>
</g>
<!-- T156 -->
<g id="node2" class="node">
<title>T156</title>
<polygon fill="none" stroke="#0058ad" points="28373.04,-81.5 28373.04,-110.5 28547.04,-110.5 28547.04,-81.5 28373.04,-81.5"/>
<text text-anchor="middle" x="28399.04" y="-92.3" font-family="Times,serif" font-size="14.00" fill="#0058ad">r 0 []</text>
<polyline fill="none" stroke="#0058ad" points="28425.04,-81.5 28425.04,-110.5 "/>
<text text-anchor="middle" x="28455.54" y="-92.3" font-family="Times,serif" font-size="14.00" fill="#0058ad">a 8 19</text>
<polyline fill="none" stroke="#0058ad" points="28486.04,-81.5 28486.04,-110.5 "/>
<text text-anchor="middle" x="28516.54" y="-92.3" font-family="Times,serif" font-size="14.00" fill="#0058ad">a 9 47</text>
</g>
<!-- T158 -->
<g id="node3" class="node">
<title>T158</title>
<polygon fill="none" stroke="#0058ad" points="29028.54,-0.5 29028.54,-29.5 29089.54,-29.5 29089.54,-0.5 29028.54,-0.5"/>
<text text-anchor="middle" x="29059.04" y="-11.3" font-family="Times,serif" font-size="14.00" fill="#0058ad">a 8 21</text>
</g>
<!-- T156&#45;&gt;T158 -->
<g id="edge3" class="edge">
<title>T156&#45;&gt;T158</title>
<path fill="none" stroke="#0050c0" d="M28547.14,-83.51C28678.48,-66.19 28922.07,-34.06 29018.36,-21.37"/>
<polygon fill="#0050c0" stroke="#0050c0" points="29018.83,-24.83 29028.28,-20.06 29017.91,-17.89 29018.83,-24.83"/>
<text text-anchor="middle" x="28819.54" y="-51.8" font-family="Times,serif" font-size="14.00" fill="#0050c0">rt</text>
</g>
<!-- T158&#45;&gt;T160 -->
<g id="edge4" class="edge">
<title>T158:f0&#45;&gt;T160:f1</title>
<path fill="none" stroke="#c02700" d="M29087.7,-29.58C29088.15,-29.73 29088.6,-29.87 29089.04,-30 29149.94,-48.09 29657.04,-31.48 29657.04,-95 29657.04,-340 29657.04,-340 29657.04,-340 29657.04,-350.49 29648,-350.71 29638.04,-354 29493.66,-401.69 8097.88,-419.66 7541.28,-420"/>
<polygon fill="#c02700" stroke="#c02700" points="7541.04,-416.5 7531.04,-420 7541.05,-423.5 7541.04,-416.5"/>
<text text-anchor="middle" x="29669.54" y="-213.8" font-family="Times,serif" font-size="14.00" fill="#c02700">ww</text>
</g>
<!-- T188 -->
<g id="node6" class="node">
<title>T188</title>
<polygon fill="none" stroke="#0058ad" points="16848.04,-162.5 16848.04,-191.5 19072.04,-191.5 19072.04,-162.5 16848.04,-162.5"/>
<text text-anchor="middle" x="16878.54" y="-173.3" font-family="Times,serif" font-size="14.00" fill="#0058ad">a 9 51</text>
<polyline fill="none" stroke="#0058ad" points="16909.04,-162.5 16909.04,-191.5 "/>
<text text-anchor="middle" x="17934.04" y="-173.3" font-family="Times,serif" font-size="14.00" fill="#0058ad">r 8 [1 2 3 4 5 7 8 9 10 11 12 13 14 15 16 17 18 21 20 23 24 25 26 28 27 8 1 2 3 4 5 7 8 9 10 11 12 13 14 15 16 17 18 21 22 23 24 25 26 28 27 8 1 2 3 4 5 7 8 9 10 11 12 13 14 15 16 17 19 21 20 23 24 25 26 28 27 8 1 2 3 4 5 7 8 9 10 11 12 13 14 15 16 17 19 21 22 23 24 25 26 28 27]</text>
<polyline fill="none" stroke="#0058ad" points="18959.04,-162.5 18959.04,-191.5 "/>
<text text-anchor="middle" x="18989.54" y="-173.3" font-family="Times,serif" font-size="14.00" fill="#0058ad">a 9 52</text>
<polyline fill="none" stroke="#0058ad" points="19020.04,-162.5 19020.04,-191.5 "/>
<text text-anchor="middle" x="19046.04" y="-173.3" font-family="Times,serif" font-size="14.00" fill="#0058ad">a 6 9</text>
</g>
<!-- T176&#45;&gt;T188 -->
<g id="edge5" class="edge">
<title>T176:f2&#45;&gt;T188:f1</title>
<path fill="none" stroke="#c000a5" d="M7377.04,-243C7377.04,-98.66 17606.71,-331.15 17926.39,-198.59"/>
<polygon fill="#c000a5" stroke="#c000a5" points="17928.75,-201.18 17934.04,-192 17924.18,-195.87 17928.75,-201.18"/>
<text text-anchor="middle" x="17833.54" y="-213.8" font-family="Times,serif" font-size="14.00" fill="#c000a5">wr</text>
</g>
<!-- T166&#45;&gt;T176 -->
<g id="edge6" class="edge">
<title>T166:f0&#45;&gt;T176:f3</title>
<path fill="none" stroke="#5b00c0" d="M7438.04,-324C7438.04,-305.23 7438.04,-298.12 7438.04,-283.35"/>
<polygon fill="#5b00c0" stroke="#5b00c0" points="7441.54,-283 7438.04,-273 7434.54,-283 7441.54,-283"/>
<text text-anchor="middle" x="7447.54" y="-294.8" font-family="Times,serif" font-size="14.00" fill="#5b00c0">rw</text>
</g>
<!-- T188&#45;&gt;T156 -->
<g id="edge7" class="edge">
<title>T188:f0&#45;&gt;T156:f2</title>
<path fill="none" stroke="#c02700" d="M16878.04,-162C16878.04,-2.71 28178.55,-264.77 28509.62,-117.83"/>
<polygon fill="#c02700" stroke="#c02700" points="28512.06,-120.35 28517.04,-111 28507.32,-115.2 28512.06,-120.35"/>
<text text-anchor="middle" x="28408.54" y="-132.8" font-family="Times,serif" font-size="14.00" fill="#c02700">ww</text>
</g>
</g>
</svg>
