<?xml version="1.0" encoding="UTF-8" standalone="no"?>
<!DOCTYPE svg PUBLIC "-//W3C//DTD SVG 1.1//EN"
 "http://www.w3.org/Graphics/SVG/1.1/DTD/svg11.dtd">
<!-- Generated by graphviz version 2.43.0 (0)
 -->
<!-- Title: a_graph Pages: 1 -->
<svg width="422pt" height="200pt"
 viewBox="0.00 0.00 421.50 200.00" xmlns="http://www.w3.org/2000/svg" xmlns:xlink="http://www.w3.org/1999/xlink">
<g id="graph0" class="graph" transform="scale(1 1) rotate(0) translate(4 196)">
<title>a_graph</title>
<polygon fill="white" stroke="transparent" points="-4,4 -4,-196 417.5,-196 417.5,4 -4,4"/>
<!-- T6637 -->
<g id="node1" class="node">
<title>T6637</title>
<polygon fill="none" stroke="#0058ad" points="50,-162.5 50,-191.5 190,-191.5 190,-162.5 50,-162.5"/>
<text text-anchor="middle" x="89.5" y="-173.3" font-family="Times,serif" font-size="14.00" fill="#0058ad">a 20 253</text>
<polyline fill="none" stroke="#0058ad" points="129,-162.5 129,-191.5 "/>
<text text-anchor="middle" x="159.5" y="-173.3" font-family="Times,serif" font-size="14.00" fill="#0058ad">a 22 1</text>
</g>
<!-- T6639 -->
<g id="node3" class="node">
<title>T6639</title>
<polygon fill="none" stroke="#0058ad" points="0,-81.5 0,-110.5 140,-110.5 140,-81.5 0,-81.5"/>
<text text-anchor="middle" x="39.5" y="-92.3" font-family="Times,serif" font-size="14.00" fill="#0058ad">a 20 254</text>
<polyline fill="none" stroke="#0058ad" points="79,-81.5 79,-110.5 "/>
<text text-anchor="middle" x="109.5" y="-92.3" font-family="Times,serif" font-size="14.00" fill="#0058ad">r 20 []</text>
</g>
<!-- T6637&#45;&gt;T6639 -->
<g id="edge1" class="edge">
<title>T6637&#45;&gt;T6639</title>
<path fill="none" stroke="#0050c0" d="M111.29,-162.24C103.76,-150.34 92.74,-132.93 83.98,-119.09"/>
<polygon fill="#0050c0" stroke="#0050c0" points="86.91,-117.18 78.61,-110.6 81,-120.92 86.91,-117.18"/>
<text text-anchor="middle" x="106.5" y="-132.8" font-family="Times,serif" font-size="14.00" fill="#0050c0">rt</text>
</g>
<!-- T6641 -->
<g id="node2" class="node">
<title>T6641</title>
<polygon fill="none" stroke="#0058ad" points="124.5,-0.5 124.5,-29.5 413.5,-29.5 413.5,-0.5 124.5,-0.5"/>
<text text-anchor="middle" x="155" y="-11.3" font-family="Times,serif" font-size="14.00" fill="#0058ad">r 22 []</text>
<polyline fill="none" stroke="#0058ad" points="185.5,-0.5 185.5,-29.5 "/>
<text text-anchor="middle" x="225" y="-11.3" font-family="Times,serif" font-size="14.00" fill="#0058ad">a 20 255</text>
<polyline fill="none" stroke="#0058ad" points="264.5,-0.5 264.5,-29.5 "/>
<text text-anchor="middle" x="299.5" y="-11.3" font-family="Times,serif" font-size="14.00" fill="#0058ad">a 6 254</text>
<polyline fill="none" stroke="#0058ad" points="334.5,-0.5 334.5,-29.5 "/>
<text text-anchor="middle" x="374" y="-11.3" font-family="Times,serif" font-size="14.00" fill="#0058ad">a 20 256</text>
</g>
<!-- T6641&#45;&gt;T6637 -->
<g id="edge2" class="edge">
<title>T6641:f0&#45;&gt;T6637:f1</title>
<path fill="none" stroke="#5b00c0" d="M155,-30C155,-85.15 159.41,-101.36 159.95,-151.8"/>
<polygon fill="#5b00c0" stroke="#5b00c0" points="156.45,-152.02 160,-162 163.45,-151.98 156.45,-152.02"/>
<text text-anchor="middle" x="167.5" y="-92.3" font-family="Times,serif" font-size="14.00" fill="#5b00c0">rw</text>
</g>
<!-- T6639&#45;&gt;T6641 -->
<g id="edge3" class="edge">
<title>T6639&#45;&gt;T6641</title>
<path fill="none" stroke="#0050c0" d="M104.21,-81.42C137.77,-68.1 189.08,-47.73 225.52,-33.26"/>
<polygon fill="#0050c0" stroke="#0050c0" points="226.9,-36.48 234.9,-29.54 224.32,-29.97 226.9,-36.48"/>
<text text-anchor="middle" x="193.5" y="-51.8" font-family="Times,serif" font-size="14.00" fill="#0050c0">rt</text>
</g>
</g>
</svg>
